# xmcd CD database file
#
# Track frame offsets:
#	150
#	22217
#	55963
#	65632
#	83324
#	104172
#	121980
#	149368
#	169225
#	199356
#	205369
#	227434
#	237805
#	258800
#	282375
#
# Disc length: 4099 seconds
#
# Revision: 0
# Processed by: cddbd v1.5PL3 Copyright (c) Steve Scherf et al.
# Submitted via: CDex 1.51
#
DISCID=de10010f
DTITLE=Pacific Moon - Healing Collection 2
DYEAR=2002
DGENRE=New Age
TTITLE0=Sirus
TTITLE1=Precious Moon
TTITLE2=Bokyo
TTITLE3=BROOKSIDE
TTITLE4=Shangri-La
TTITLE5=MEBAE
TTITLE6=KONJAKU MONOGATARI
TTITLE7=GENTLE WHISPER
TTITLE8=SEASIDE
TTITLE9=Interlude from Asian Drums II
TTITLE10=DAWN
TTITLE11=SECOND IMAGE
TTITLE12=BUTTERFLY
TTITLE13=The Wind Of Liudao
TTITLE14=ERHU'S DREAM
EXTD=YEAR: 2002
EXTT0=
EXTT1=
EXTT2=
EXTT3=
EXTT4=
EXTT5=
EXTT6=
EXTT7=
EXTT8=
EXTT9=
EXTT10=
EXTT11=
EXTT12=
EXTT13=
EXTT14=
PLAYORDER=
